<svg width="113" height="27" viewBox="0 0 113 27" fill="none" xmlns="http://www.w3.org/2000/svg">
<path d="M6.69998 15.9C4.79998 15.9 3.29998 15.4 2.29998 14.3C1.29998 13.2 0.799976 11.7 0.799976 9.8C0.799976 8.8 0.999976 8 1.29998 7.2C1.59998 6.4 1.99998 5.8 2.59998 5.3C3.09998 4.8 3.79998 4.4 4.49998 4.1C5.19998 3.8 5.99998 3.7 6.79998 3.7C7.29998 3.7 7.69998 3.7 8.19998 3.8C8.59998 3.9 8.99998 4 9.29998 4.1C9.59998 4.2 9.79998 4.2 9.99998 4.3C10.2 4.4 10.3 4.5 10.4 4.5L9.69998 6.7C9.29998 6.5 8.89997 6.3 8.39997 6.2C7.89997 6.1 7.39998 6 6.79998 6C6.39998 6 5.99998 6.1 5.59998 6.2C5.19998 6.3 4.89998 6.6 4.59998 6.9C4.29998 7.1 3.99998 7.5 3.89998 8C3.69998 8.5 3.59998 9 3.59998 9.7C3.59998 10.2 3.69998 10.7 3.79998 11.2C3.89998 11.7 4.09998 12.1 4.39998 12.4C4.69998 12.7 4.99998 13 5.39998 13.2C5.79998 13.4 6.29998 13.5 6.99998 13.5C7.39998 13.5 7.69998 13.5 7.99998 13.4C8.29998 13.3 8.59998 13.3 8.79998 13.2C8.99998 13.1 9.19997 13.1 9.39997 13C9.59997 12.9 9.69997 12.8 9.89997 12.8L10.6 14.9C10.2 15.2 9.69998 15.4 8.99998 15.6C8.39998 15.8 7.59997 15.9 6.69998 15.9Z" fill="#5E5E5E"/>
<path d="M20.6 15.6C20.5 15.2 20.3 14.8 20.2 14.3C20 13.9 19.9 13.4 19.8 13H15.2C15.1 13.4 14.9 13.9 14.8 14.3C14.7 14.7 14.5 15.1 14.4 15.6H11.7C12.1 14.3 12.6 13.2 13 12.1C13.4 11 13.8 10 14.2 9.1C14.6 8.2 15 7.3 15.3 6.4C15.7 5.5 16 4.7 16.4 3.9H18.9C19.3 4.7 19.7 5.5 20 6.4C20.3 7.3 20.8 8.1 21.1 9.1C21.5 10 21.9 11.1 22.3 12.1C22.7 13.1 23.1 14.3 23.6 15.6H20.6ZM17.5 6.6C17.4 6.8 17.4 7 17.2 7.3C17 7.6 17 7.9 16.8 8.3C16.7 8.7 16.5 9.1 16.3 9.6C16.1 10.1 15.9 10.5 15.8 11.1H19.1C18.9 10.6 18.7 10.1 18.6 9.6C18.5 9.1 18.3 8.7 18.1 8.3C17.9 7.9 17.8 7.6 17.7 7.3C17.6 7 17.5 6.8 17.5 6.6Z" fill="#5E5E5E"/>
<path d="M25 3.9H27.6V10.8C28 10.2 28.4 9.6 28.9 8.9C29.4 8.2 29.8 7.6 30.3 7C30.8 6.4 31.2 5.8 31.7 5.3C32.2 4.8 32.6 4.3 32.9 3.9H35V15.6H32.4V8C31.4 9.2 30.5 10.4 29.6 11.7C28.7 13 27.9 14.3 27.1 15.7H25V3.9ZM30.2 2.9C29.8 2.9 29.5 2.8 29.2 2.7C28.9 2.6 28.6 2.4 28.3 2.2C28 2 27.8 1.7 27.6 1.4C27.4 1.1 27.3 0.8 27.3 0.4L29 0C29.1 0.4 29.2 0.7 29.4 0.9C29.6 1.1 29.9 1.2 30.1 1.2C30.4 1.2 30.6 1.1 30.9 1C31.2 0.9 31.3 0.5 31.3 0.1L33 0.6C33 1 32.9 1.3 32.7 1.6C32.5 1.9 32.3 2.1 32 2.4C31.7 2.6 31.4 2.8 31.1 2.9C30.9 2.8 30.6 2.9 30.2 2.9Z" fill="#5E5E5E"/>
<path d="M46.4 3.9V6.1H42.9V15.6H40.3V6.2H36.8V3.9H46.4Z" fill="#5E5E5E"/>
<path d="M57 11.8C57 12.5 56.9 13 56.6 13.5C56.3 14 56 14.4 55.5 14.8C55 15.1 54.5 15.4 53.8 15.6C53.1 15.8 52.4 15.9 51.6 15.9C51.1 15.9 50.6 15.9 50 15.8C49.4 15.7 48.8 15.6 48.2 15.5V3.9H50.8V7.8C50.9 7.8 51 7.8 51.1 7.8C51.2 7.8 51.3 7.8 51.4 7.8C53.2 7.8 54.6 8.1 55.5 8.8C56.4 9.5 57 10.4 57 11.8ZM51.3 10C51.2 10 51.2 10 51.1 10C51 10 50.9 10 50.8 10V13.5C50.9 13.5 51.1 13.5 51.2 13.5C51.3 13.5 51.5 13.5 51.8 13.5C52.1 13.5 52.5 13.5 52.8 13.4C53.1 13.3 53.4 13.2 53.6 13.1C53.8 13 54 12.8 54.1 12.6C54.2 12.4 54.3 12.1 54.3 11.8C54.3 11.1 54 10.6 53.5 10.4C53 10.2 52.2 10 51.3 10ZM58.4 3.9H61V15.6H58.4V3.9Z" fill="#5E5E5E"/>
<path d="M71.3 16.0998C70.7 16.0998 70 16.0998 69.4 15.9998C68.8 15.9998 68.1 15.8998 67.4 15.6998V4.3998C67.9 4.2998 68.5 4.1998 69.2 4.1998C69.8 4.0998 70.4 4.0998 71 4.0998C71.7 4.0998 72.4 4.1998 73.1 4.2998C73.7 4.3998 74.3 4.5998 74.7 4.7998C75.2 5.0998 75.5 5.3998 75.8 5.7998C75.9 6.2998 76 6.7998 76 7.3998C76 8.2998 75.5 9.0998 74.6 9.5998C75.3 9.8998 75.9 10.2998 76.1 10.6998C76.4 11.1998 76.5 11.6998 76.5 12.2998C76.5 13.4998 76.1 14.4998 75.2 15.0998C74.4 15.7998 73 16.0998 71.3 16.0998ZM69.9 8.7998H71.2C72 8.7998 72.6 8.69981 72.9 8.49981C73.2 8.29981 73.4 7.9998 73.4 7.4998C73.4 6.9998 73.2 6.6998 72.9 6.4998C72.5 6.2998 72 6.1998 71.3 6.1998C71.1 6.1998 70.8 6.1998 70.6 6.1998C70.4 6.1998 70.1 6.1998 69.9 6.1998V8.7998ZM69.9 10.7998V13.7998C70.1 13.7998 70.3 13.7998 70.5 13.8998C70.7 13.8998 71 13.8998 71.2 13.8998C72 13.8998 72.6 13.7998 73.1 13.5998C73.6 13.3998 73.8 12.9998 73.8 12.2998C73.8 11.7998 73.6 11.3998 73.2 11.0998C72.8 10.8998 72.2 10.7998 71.5 10.7998H69.9Z" fill="#5E5E5E"/>
<path d="M84.1 16.1998C82.2 16.1998 80.7 15.6998 79.7 14.5998C78.7 13.4998 78.2 11.9998 78.2 10.0998C78.2 9.0998 78.4 8.2998 78.7 7.4998C79 6.6998 79.4 6.0998 80 5.5998C80.5 5.0998 81.2 4.6998 81.9 4.3998C82.6 4.0998 83.4 3.9998 84.3 3.9998C84.8 3.9998 85.2 3.9998 85.7 4.0998C86.1 4.1998 86.5 4.2998 86.8 4.3998C87.1 4.4998 87.4 4.5998 87.6 4.6998C87.8 4.7998 87.9 4.8998 88 4.8998L87.2 6.9998C86.8 6.7998 86.4 6.5998 85.9 6.4998C85.4 6.3998 84.9 6.2998 84.3 6.2998C83.9 6.2998 83.5 6.3998 83.1 6.4998C82.7 6.5998 82.4 6.8998 82.1 7.1998C81.8 7.4998 81.6 7.89981 81.4 8.39981C81.2 8.89981 81.1 9.3998 81.1 10.0998C81.1 10.5998 81.2 11.0998 81.3 11.5998C81.4 12.0998 81.6 12.4998 81.9 12.7998C82.2 13.0998 82.5 13.3998 82.9 13.5998C83.3 13.7998 83.8 13.8998 84.5 13.8998C84.9 13.8998 85.2 13.8998 85.5 13.7998C85.8 13.7998 86.1 13.6998 86.3 13.5998C86.5 13.4998 86.7 13.4998 86.9 13.3998C87.1 13.2998 87.2 13.1998 87.4 13.1998L88.1 15.2998C87.7 15.4998 87.2 15.6998 86.5 15.8998C85.7 16.0998 85 16.1998 84.1 16.1998Z" fill="#5E5E5E"/>
<path d="M89.7 15.8998V4.1998H97.6V6.3998H92.3V8.69981H97V10.8998H92.3V13.6998H98V15.8998H89.7Z" fill="#5E5E5E"/>
<path d="M103 4.1998C103.2 4.5998 103.4 4.9998 103.7 5.5998C104 6.0998 104.2 6.6998 104.5 7.3998C104.8 7.9998 105.1 8.69981 105.4 9.39981C105.7 10.0998 105.9 10.6998 106.2 11.2998C106.4 10.6998 106.7 10.0998 107 9.39981C107.3 8.69981 107.6 8.0998 107.9 7.3998C108.2 6.7998 108.5 6.1998 108.7 5.5998C109 5.0998 109.2 4.5998 109.4 4.1998H111.8C111.9 4.9998 112 5.7998 112.1 6.7998C112.2 7.7998 112.3 8.7998 112.4 9.7998C112.5 10.7998 112.5 11.8998 112.6 12.8998C112.7 13.8998 112.7 14.8998 112.8 15.8998H110.2C110.2 14.7998 110.1 13.4998 110.1 12.1998C110.1 10.8998 110 9.4998 109.8 8.0998C109.6 8.5998 109.4 9.09981 109.1 9.69981C108.9 10.2998 108.6 10.7998 108.4 11.3998C108.2 11.9998 107.9 12.4998 107.7 12.9998C107.5 13.4998 107.3 13.9998 107.1 14.2998H105.3C105.1 13.8998 104.9 13.4998 104.7 12.9998C104.5 12.4998 104.2 11.8998 104 11.3998C103.8 10.7998 103.5 10.2998 103.3 9.69981C103.1 9.09981 102.8 8.5998 102.6 8.0998C102.5 9.4998 102.4 10.7998 102.3 12.1998C102.2 13.5998 102.2 14.7998 102.2 15.8998H99.6C99.6 14.9998 99.7 13.9998 99.8 12.8998C99.9 11.8998 99.9 10.7998 100 9.7998C100.1 8.7998 100.2 7.7998 100.3 6.7998C100.4 5.7998 100.5 4.9998 100.6 4.1998H103Z" fill="#5E5E5E"/>
<path d="M4.59998 24.3999C4.59998 24.7999 4.49998 25.1999 4.39998 25.4999C4.29998 25.7999 4.09998 26.0999 3.79998 26.2999C3.59998 26.4999 3.29998 26.6999 2.89998 26.7999C2.59998 26.8999 2.19998 26.9999 1.79998 26.9999C1.59998 26.9999 1.39998 26.9999 1.19998 26.9999C0.999976 26.9999 0.799976 26.8999 0.599976 26.8999V21.9999C0.799976 21.9999 0.999976 21.8999 1.19998 21.8999C1.39998 21.8999 1.59998 21.8999 1.79998 21.8999C2.19998 21.8999 2.59998 21.9999 2.89998 22.0999C3.19998 22.1999 3.49998 22.3999 3.79998 22.5999C3.99998 22.7999 4.19998 23.0999 4.39998 23.3999C4.59998 23.5999 4.59998 23.9999 4.59998 24.3999ZM1.09998 26.4999C1.09998 26.4999 1.19998 26.4999 1.29998 26.4999C1.39998 26.4999 1.59998 26.4999 1.89998 26.4999C2.29998 26.4999 2.59998 26.4999 2.79998 26.3999C2.99998 26.2999 3.29998 26.1999 3.49998 25.9999C3.69998 25.7999 3.79998 25.5999 3.89998 25.2999C3.99998 24.9999 3.99998 24.6999 3.99998 24.3999C3.99998 24.0999 3.99998 23.7999 3.89998 23.4999C3.79998 23.1999 3.69998 22.9999 3.49998 22.7999C3.29998 22.5999 3.09998 22.4999 2.79998 22.3999C2.49998 22.2999 2.19998 22.2999 1.89998 22.2999C1.59998 22.2999 1.39998 22.2999 1.29998 22.2999C1.19998 22.2999 1.09998 22.2999 1.09998 22.2999V26.4999Z" fill="#5E5E5E"/>
<path d="M8.59998 21.8999H9.09998V26.8999H8.59998V21.8999Z" fill="#5E5E5E"/>
<path d="M17 24.4999V26.6999C16.9 26.6999 16.7 26.7999 16.5 26.7999C16.3 26.7999 15.9 26.8999 15.5 26.8999C15.2 26.8999 14.9 26.7999 14.6 26.6999C14.3 26.5999 14.1 26.3999 13.9 26.1999C13.7 25.9999 13.5 25.6999 13.4 25.3999C13.3 25.0999 13.2 24.6999 13.2 24.2999C13.2 23.8999 13.3 23.4999 13.4 23.1999C13.5 22.8999 13.7 22.5999 13.9 22.3999C14.1 22.1999 14.4 21.9999 14.6 21.8999C14.9 21.7999 15.2 21.6999 15.5 21.6999C15.9 21.6999 16.2 21.6999 16.4 21.7999C16.6 21.8999 16.8 21.9999 16.9 21.9999L16.7 22.3999C16.6 22.2999 16.4 22.1999 16.1 22.1999C15.9 22.0999 15.6 22.0999 15.3 22.0999C15 22.0999 14.8 22.0999 14.6 22.1999C14.4 22.2999 14.2 22.3999 14 22.5999C13.8 22.7999 13.7 22.9999 13.6 23.2999C13.5 23.5999 13.5 23.8999 13.5 24.1999C13.5 24.4999 13.5 24.7999 13.6 25.0999C13.7 25.3999 13.8 25.5999 14 25.7999C14.2 25.9999 14.4 26.0999 14.6 26.1999C14.8 26.2999 15.1 26.3999 15.4 26.3999C15.6 26.3999 15.9 26.3999 16 26.3999C16.2 26.3999 16.3 26.2999 16.3 26.2999V24.4999H17Z" fill="#5E5E5E"/>
<path d="M21 21.8999H21.5V26.8999H21V21.8999Z" fill="#5E5E5E"/>
<path d="M28.9 21.8999V22.2999H27.3V26.8999H26.8V22.2999H25.2V21.8999H28.9Z" fill="#5E5E5E"/>
<path d="M35.6 26.8999C35.5 26.6999 35.4 26.3999 35.3 26.1999C35.2 25.9999 35.1 25.7999 35.1 25.4999H32.6C32.5 25.6999 32.4 25.8999 32.4 26.1999C32.3 26.3999 32.2 26.6999 32.1 26.8999H31.6C31.8 26.3999 32 25.8999 32.1 25.3999C32.3 24.8999 32.4 24.4999 32.6 24.0999C32.8 23.6999 32.9 23.2999 33.1 22.8999C33.3 22.4999 33.4 22.1999 33.6 21.7999H34C34.2 22.1999 34.3 22.4999 34.5 22.8999C34.7 23.2999 34.8 23.6999 35 24.0999C35.2 24.4999 35.3 24.8999 35.5 25.3999C35.7 25.8999 35.9 26.2999 36.1 26.8999H35.6ZM33.9 22.4999C33.7 22.8999 33.5 23.2999 33.4 23.7999C33.2 24.1999 33 24.6999 32.9 25.1999H35C34.8 24.6999 34.6 24.1999 34.5 23.7999C34.3 23.2999 34.1 22.8999 33.9 22.4999Z" fill="#5E5E5E"/>
<path d="M42.6 26.4999V26.8999H39.7V21.8999H40.2V26.4999H42.6Z" fill="#5E5E5E"/>
<path d="M45.5 24.5999H47.1V24.9999H45.5V24.5999Z" fill="#5E5E5E"/>
<path d="M54.3 26.8999C54.2 26.6999 54.1 26.3999 54 26.1999C53.9 25.9999 53.8 25.7999 53.8 25.4999H51.3C51.2 25.6999 51.1 25.8999 51.1 26.1999C51.1 26.4999 50.9 26.6999 50.8 26.8999H50.3C50.5 26.3999 50.7 25.8999 50.8 25.3999C51 24.8999 51.1 24.4999 51.3 24.0999C51.5 23.6999 51.6 23.2999 51.8 22.8999C52 22.4999 52.1 22.1999 52.3 21.7999H52.7C52.9 22.1999 53 22.4999 53.2 22.8999C53.4 23.2999 53.5 23.6999 53.7 24.0999C53.9 24.4999 54 24.8999 54.2 25.3999C54.4 25.8999 54.6 26.2999 54.8 26.8999H54.3ZM52.5 22.4999C52.3 22.8999 52.1 23.2999 52 23.7999C51.8 24.1999 51.6 24.6999 51.5 25.1999H53.6C53.4 24.6999 53.2 24.1999 53.1 23.7999C52.9 23.2999 52.7 22.8999 52.5 22.4999Z" fill="#5E5E5E"/>
<path d="M61.1 21.8999V22.2999H58.9V26.8999H58.4V21.8999H61.1Z" fill="#5E5E5E"/>
<path d="M64.8 26.8999V21.8999H67.7V22.2999H65.3V23.9999H67.4V24.3999H65.3V26.3999H67.9V26.7999H64.8V26.8999Z" fill="#5E5E5E"/>
<path d="M75 21.8999H75.5V26.8999H75V24.4999H72.3V26.8999H71.8V21.8999H72.3V24.0999H75V21.8999Z" fill="#5E5E5E"/>
<path d="M82.9 21.8999V22.2999H81.3V26.8999H80.8V22.2999H79.2V21.8999H82.9Z" fill="#5E5E5E"/>
<path d="M88.5 26.9999C88.2 26.9999 87.9 26.8999 87.6 26.7999C87.3 26.6999 87.1 26.4999 86.9 26.2999C86.7 26.0999 86.5 25.7999 86.4 25.4999C86.3 25.1999 86.2 24.7999 86.2 24.3999C86.2 23.9999 86.3 23.5999 86.4 23.2999C86.5 22.9999 86.7 22.6999 86.9 22.4999C87.1 22.2999 87.4 22.0999 87.6 21.9999C87.9 21.8999 88.2 21.7999 88.5 21.7999C88.7 21.7999 88.9 21.7999 89 21.7999C89.2 21.7999 89.3 21.8999 89.4 21.8999C89.5 21.8999 89.6 21.9999 89.7 21.9999C89.8 21.9999 89.8 22.0999 89.9 22.0999L89.7 22.4999C89.6 22.3999 89.4 22.3999 89.2 22.2999C89 22.1999 88.8 22.1999 88.5 22.1999C88.2 22.1999 87.9 22.2999 87.7 22.3999C87.5 22.4999 87.3 22.6999 87.1 22.7999C86.9 22.8999 86.8 23.1999 86.7 23.4999C86.6 23.7999 86.6 24.0999 86.6 24.3999C86.6 24.6999 86.6 24.9999 86.7 25.2999C86.8 25.5999 86.9 25.7999 87.1 25.9999C87.3 26.1999 87.4 26.2999 87.7 26.3999C88 26.4999 88.2 26.5999 88.5 26.5999C88.8 26.5999 89.1 26.5999 89.3 26.4999C89.5 26.3999 89.7 26.3999 89.8 26.2999L89.9 26.6999C89.9 26.6999 89.8 26.7999 89.7 26.7999C89.6 26.7999 89.5 26.8999 89.4 26.8999C89.3 26.8999 89.1 26.9999 89 26.9999C88.9 26.9999 88.7 26.9999 88.5 26.9999Z" fill="#5E5E5E"/>
<path d="M97.1 21.8999V22.2999H95.5V26.8999H95V22.2999H93.4V21.8999H97.1Z" fill="#5E5E5E"/>
<path d="M102 26.8999C101.9 26.8999 101.8 26.8999 101.7 26.8999C101.6 26.8999 101.5 26.8999 101.4 26.8999C101.3 26.8999 101.2 26.8999 101.1 26.8999C101 26.8999 100.9 26.8999 100.8 26.7999V21.9999C100.9 21.9999 101 21.9999 101.1 21.8999C101.2 21.8999 101.3 21.8999 101.4 21.8999C101.5 21.8999 101.6 21.8999 101.7 21.8999C101.8 21.8999 101.9 21.8999 102 21.8999C102.3 21.8999 102.5 21.8999 102.8 21.9999C103.1 22.0999 103.3 22.0999 103.4 22.1999C103.6 22.2999 103.7 22.3999 103.8 22.5999C103.9 22.7999 104 22.9999 104 23.1999C104 23.4999 103.9 23.6999 103.8 23.8999C103.7 24.0999 103.5 24.1999 103.2 24.2999C103.3 24.2999 103.5 24.3999 103.6 24.3999C103.7 24.4999 103.8 24.4999 103.9 24.5999C104 24.6999 104.1 24.7999 104.1 24.9999C104.1 25.1999 104.2 25.2999 104.2 25.4999C104.2 25.9999 104 26.2999 103.6 26.5999C103.4 26.7999 102.8 26.8999 102 26.8999ZM101.3 24.0999H102.3C102.5 24.0999 102.6 24.0999 102.8 24.0999C103 24.0999 103.1 23.9999 103.2 23.9999C103.3 23.9999 103.4 23.7999 103.5 23.6999C103.6 23.5999 103.6 23.3999 103.6 23.1999C103.6 22.9999 103.6 22.8999 103.5 22.7999C103.4 22.6999 103.3 22.5999 103.2 22.4999C103.1 22.3999 102.9 22.3999 102.7 22.2999C102.5 22.2999 102.3 22.2999 102.1 22.2999C101.9 22.2999 101.8 22.2999 101.6 22.2999C101.4 22.2999 101.4 22.2999 101.3 22.2999V24.0999ZM101.3 24.4999V26.4999C101.4 26.4999 101.5 26.4999 101.6 26.4999C101.7 26.4999 101.9 26.4999 102 26.4999C102.2 26.4999 102.4 26.4999 102.6 26.4999C102.8 26.4999 103 26.3999 103.2 26.2999C103.4 26.1999 103.5 26.0999 103.6 25.9999C103.7 25.8999 103.7 25.6999 103.7 25.4999C103.7 25.2999 103.7 25.0999 103.6 24.9999C103.5 24.8999 103.4 24.7999 103.3 24.6999C103.2 24.5999 103 24.5999 102.8 24.4999C102.6 24.4999 102.4 24.4999 102.2 24.4999H101.3Z" fill="#5E5E5E"/>
<path d="M112.8 24.3999C112.8 24.7999 112.7 25.1999 112.6 25.4999C112.5 25.7999 112.3 26.0999 112.1 26.2999C111.9 26.4999 111.6 26.6999 111.4 26.7999C111.1 26.8999 110.8 26.9999 110.5 26.9999C110.2 26.9999 109.9 26.8999 109.6 26.7999C109.3 26.6999 109.1 26.4999 108.8 26.2999C108.5 26.0999 108.4 25.7999 108.3 25.4999C108.2 25.1999 108.1 24.7999 108.1 24.3999C108.1 23.9999 108.2 23.5999 108.3 23.2999C108.4 22.9999 108.6 22.6999 108.8 22.4999C109 22.2999 109.3 22.0999 109.6 21.9999C109.9 21.8999 110.2 21.7999 110.5 21.7999C110.8 21.7999 111.1 21.8999 111.4 21.9999C111.7 22.0999 111.9 22.2999 112.1 22.4999C112.3 22.6999 112.5 22.9999 112.6 23.2999C112.7 23.5999 112.8 23.9999 112.8 24.3999ZM112.2 24.3999C112.2 24.0999 112.2 23.7999 112.1 23.4999C112 23.1999 111.9 22.9999 111.7 22.7999C111.5 22.5999 111.3 22.4999 111.1 22.3999C110.9 22.2999 110.6 22.2999 110.3 22.2999C110 22.2999 109.8 22.2999 109.5 22.3999C109.2 22.4999 109.1 22.5999 108.9 22.7999C108.7 22.9999 108.6 23.1999 108.5 23.4999C108.4 23.7999 108.4 24.0999 108.4 24.3999C108.4 24.6999 108.4 24.9999 108.5 25.2999C108.6 25.5999 108.7 25.7999 108.9 25.9999C109.1 26.1999 109.3 26.2999 109.5 26.3999C109.7 26.4999 110 26.5999 110.3 26.5999C110.6 26.5999 110.8 26.4999 111.1 26.3999C111.4 26.2999 111.5 26.1999 111.7 25.9999C111.9 25.7999 112 25.5999 112.1 25.2999C112.2 24.9999 112.2 24.6999 112.2 24.3999Z" fill="#5E5E5E"/>
</svg>
