<svg width="65" height="154" viewBox="0 0 65 154" fill="none" xmlns="http://www.w3.org/2000/svg">
<path d="M5.44357 152.501V154.001" stroke="#F5F5F5" stroke-width="3" stroke-miterlimit="10"/>
<path d="M9.88715 152.501V154.001" stroke="#F5F5F5" stroke-width="3" stroke-miterlimit="10"/>
<path d="M14.3307 152.501V154.001" stroke="#F5F5F5" stroke-width="3" stroke-miterlimit="10"/>
<path d="M18.7743 152.501V154.001" stroke="#F5F5F5" stroke-width="3" stroke-miterlimit="10"/>
<path d="M23.2178 152.501V154.001" stroke="#F5F5F5" stroke-width="3" stroke-miterlimit="10"/>
<path d="M32.105 152.501V154.001" stroke="#F5F5F5" stroke-width="3" stroke-miterlimit="10"/>
<path d="M36.5486 152.501V154.001" stroke="#F5F5F5" stroke-width="3" stroke-miterlimit="10"/>
<path d="M40.9921 152.501V154.001" stroke="#F5F5F5" stroke-width="3" stroke-miterlimit="10"/>
<path d="M30.6238 148.704H43.2633" stroke="#F5F5F5" stroke-width="3" stroke-miterlimit="10"/>
<path d="M46.2257 31.0819V34.0799C46.2257 43.9733 38.2273 52.0679 28.4514 52.0679C18.6756 52.0679 10.6772 43.9733 10.6772 34.0799V30.2825" stroke="#F5F5F5" stroke-width="3" stroke-miterlimit="10"/>
<path d="M9.88713 84.3464L7.71477 107.531L10.6771 109.729V115.725H3.17236L1.79001 112.028V79.0499" stroke="#F5F5F5" stroke-width="3" stroke-miterlimit="10"/>
<path d="M17.9843 142.008V130.016H15.0219V111.328" stroke="#F5F5F5" stroke-width="3" stroke-miterlimit="10"/>
<path d="M12.0595 67.058C12.0595 74.553 15.0219 79.05 15.0219 79.05V109.829H43.8558" stroke="#F5F5F5" stroke-width="3" stroke-miterlimit="10"/>
<path d="M1 83.547H15.0219" stroke="#F5F5F5" stroke-width="3" stroke-miterlimit="10"/>
<path d="M23.909 142.008L24.699 148.804V151.702H3.96239V148.004L15.0219 145.006L18.7743 142.008H23.909ZM23.909 142.008V130.016H26.8714V115.726H29.1426L31.4138 130.016H33.5862V142.008" stroke="#F5F5F5" stroke-width="3" stroke-miterlimit="10"/>
<path d="M39.5109 142.008V130.016H42.4733V111.328" stroke="#F5F5F5" stroke-width="3" stroke-miterlimit="10"/>
<path d="M30.6238 151.702V148.704L33.5862 142.008H39.511L43.2633 148.704L43.0658 151.702H30.6238Z" stroke="#F5F5F5" stroke-width="3" stroke-miterlimit="10"/>
<path d="M44.6457 101.535C39.0172 99.6362 34.9687 94.3397 34.9687 88.0439C34.9687 80.1492 41.2884 73.8534 48.9905 73.8534C56.7915 73.8534 63.0125 80.2491 63.0125 88.0439C63.0125 93.4403 60.0502 98.1372 55.6066 100.536" stroke="#F5F5F5" stroke-width="3" stroke-miterlimit="10"/>
<path d="M44.7445 96.3384L44.6457 103.034L52.6442 106.032L56.4952 102.634V99.3364H54.2241L52.8417 96.3384H44.7445Z" stroke="#F5F5F5" stroke-width="3" stroke-miterlimit="10"/>
<path d="M15.0219 145.006L18.7743 151.002" stroke="#F5F5F5" stroke-width="3" stroke-miterlimit="10"/>
<path d="M11.3683 146.505L14.3307 151.702" stroke="#F5F5F5" stroke-width="3" stroke-miterlimit="10"/>
<path d="M46.293 92.4407L44.5425 87.0374L49.0893 83.7634L53.6361 87.0375L51.8856 92.4407H46.293Z" stroke="#F5F5F5"/>
<path d="M46.4443 73.5505L52.303 73.4579L53.6148 75.1542L49.1842 78.431L44.8091 75.2805L46.4443 73.5505Z" stroke="#F5F5F5"/>
<path d="M35.4974 92.2257L34.1142 87.3728L35.3904 84.2247L39.6832 87.3159L37.1151 93.2934L35.4974 92.2257Z" stroke="#F5F5F5"/>
<path d="M61.3528 92.8404L58.705 87.3025L62.7931 84.3009L63.4926 87.3681L62.7715 92.8404H61.3528Z" stroke="#F5F5F5"/>
<path d="M49.1881 85.046V74.553" stroke="#F5F5F5" stroke-width="1.5" stroke-miterlimit="10"/>
<path d="M61.7288 87.3445H36.5486" stroke="#F5F5F5" stroke-width="1.5" stroke-miterlimit="10"/>
<path d="M46.9169 91.7415L43.9545 94.7395V97.0379" stroke="#F5F5F5" stroke-width="1.5" stroke-miterlimit="10"/>
<path d="M21.7367 39.2765H17.9843C16.4043 39.2765 15.5157 37.8774 15.1207 36.2785L14.3307 31.7815H10.5783V30.2825H23.909L26.0815 31.7815L25.2915 36.3784C24.9952 37.9773 23.3166 39.2765 21.7367 39.2765Z" stroke="#F5F5F5" stroke-width="3" stroke-miterlimit="10"/>
<path d="M35.0674 39.2765H38.8198C40.3997 39.2765 41.2883 37.8774 41.6833 36.2785L42.4733 31.7815H46.2257V30.2825H32.895L30.7225 31.7815L31.5125 36.3784C31.8088 37.9773 33.4874 39.2765 35.0674 39.2765Z" stroke="#F5F5F5" stroke-width="3" stroke-miterlimit="10"/>
<path d="M24.699 32.5809H31.4138" stroke="#F5F5F5" stroke-width="3" stroke-miterlimit="10"/>
<path d="M10.6772 28.7835V21.8881C10.6772 16.7915 13.1457 12.0946 17.3918 9.29647V11.495L22.5267 6.29847V8.497L28.4514 4V8.497H30.6238" stroke="#F5F5F5" stroke-width="3" stroke-miterlimit="10"/>
<path d="M26.8714 8.597H29.8338L32.0063 5.599L37.931 11.3951V9.19661L39.0172 9.89614C43.2633 12.6943 45.9294 17.4911 46.0281 22.6876V27.3845" stroke="#F5F5F5" stroke-width="3" stroke-miterlimit="10"/>
<path d="M36.5486 53.567L29.1426 58.7635H27.6614L20.2555 53.567" stroke="#F5F5F5" stroke-width="3" stroke-miterlimit="10"/>
<path d="M47.6081 27.3844H47.3119C44.547 27.3844 42.0783 25.7855 40.5971 23.3871C39.3134 21.2885 36.9435 19.8894 34.2774 19.8894H22.4278C19.7617 19.8894 17.3919 21.2885 16.1082 23.3871C14.627 25.7855 12.1583 27.3844 9.39341 27.3844H9.09712" stroke="#F5F5F5" stroke-width="3" stroke-miterlimit="10"/>
<path d="M17.9843 134.513H23.2179" stroke="#F5F5F5" stroke-width="3" stroke-miterlimit="10"/>
<path d="M34.4749 134.513H39.6097" stroke="#F5F5F5" stroke-width="3" stroke-miterlimit="10"/>
<path d="M54.3228 75.3525C52.6442 62.1613 41.5846 52.068 28.1551 52.068C13.5407 52.068 1.79001 64.06 1.79001 78.7502V79.05H15.1207" stroke="#F5F5F5" stroke-width="3" stroke-miterlimit="10"/>
<path d="M10.6772 23.5869V29.5829" stroke="#F5F5F5" stroke-width="3" stroke-miterlimit="10"/>
<path d="M46.2257 23.5869V29.5829" stroke="#F5F5F5" stroke-width="3" stroke-miterlimit="10"/>
<path d="M29.1426 75.5523L28.4514 76.052L27.7601 75.5523C26.7727 74.8528 26.2789 73.7535 26.2789 72.6543V69.3564H30.7225V72.6543C30.6238 73.7535 30.0313 74.8528 29.1426 75.5523Z" stroke="#F5F5F5" stroke-width="1.5" stroke-miterlimit="10"/>
<path d="M26.1802 72.3544H30.6238" stroke="#F5F5F5" stroke-width="1.5" stroke-miterlimit="10"/>
<path d="M28.4514 78.3504C31.7236 78.3504 34.3762 75.6659 34.3762 72.3544C34.3762 69.0429 31.7236 66.3584 28.4514 66.3584C25.1793 66.3584 22.5267 69.0429 22.5267 72.3544C22.5267 75.6659 25.1793 78.3504 28.4514 78.3504Z" stroke="#F5F5F5" stroke-width="2" stroke-miterlimit="10"/>
</svg>
