<svg width="66" height="152" viewBox="0 0 66 152" fill="none" xmlns="http://www.w3.org/2000/svg">
<path d="M15.1207 78.0942H1.79001C1.79001 63.2732 13.7383 51.2374 28.4514 51.2374C43.1646 51.2374 55.1129 63.2732 55.1129 78.0942H41.7821" stroke="#EEEEEE" stroke-width="3" stroke-miterlimit="10"/>
<path d="M1.79001 78.0941V110.223L3.2712 113.903H10.6771V107.935L7.71477 105.747L9.88713 84.0623" stroke="#EEEEEE" stroke-width="3" stroke-miterlimit="10"/>
<path d="M18.0831 140.064V126.635H15.1207V110.223" stroke="#EEEEEE" stroke-width="3" stroke-miterlimit="10"/>
<path d="M55.1129 78.0941V84.0623" stroke="#EEEEEE" stroke-width="3" stroke-miterlimit="10"/>
<path d="M24.0079 69.1418V81.0782" stroke="#EEEEEE" stroke-width="3" stroke-miterlimit="10"/>
<path d="M26.9702 70.6339H32.895V75.11H28.4514V79.5862H34.3762" stroke="#EEEEEE" stroke-width="3" stroke-miterlimit="10"/>
<path d="M41.7822 83.366V78.0942C41.7822 78.0942 44.7445 73.618 44.7445 66.1578" stroke="#EEEEEE" stroke-width="3" stroke-miterlimit="10"/>
<path d="M12.1583 66.1578C12.1583 73.618 15.1207 78.0942 15.1207 78.0942V108.731H43.9545" stroke="#EEEEEE" stroke-width="3" stroke-miterlimit="10"/>
<path d="M43.2633 98.6842C38.0298 96.7943 34.3762 93.0145 34.3762 90.7267C34.3762 87.7426 40.9922 81.7744 49.1881 81.7744C57.384 81.7744 64 87.7426 64 90.7267C64 92.915 60.3464 96.7943 55.1129 98.6842" stroke="#EEEEEE" stroke-width="3" stroke-miterlimit="10"/>
<path d="M10.5784 33.3329C10.5784 43.1804 18.5769 51.2374 28.3527 51.2374C38.1286 51.2374 46.127 43.1804 46.127 33.3329L46.2257 22.8886C46.2257 22.8886 40.301 19.9045 28.4514 19.9045C16.6019 19.9045 10.6772 22.8886 10.6772 22.8886L10.5784 33.3329Z" stroke="#EEEEEE" stroke-width="3" stroke-miterlimit="10" stroke-linejoin="round"/>
<path d="M15.1207 45.2692C9.19596 39.301 6.23358 36.317 6.23358 31.8408C6.23358 27.3647 6.23358 27.3647 6.23358 18.4125C6.23358 9.46021 18.0831 2 28.4514 2C38.8198 2 50.6693 9.46021 50.6693 18.4125C50.6693 27.3647 50.6693 27.3647 50.6693 31.8408C50.6693 36.317 47.7069 39.301 41.7821 45.2692" stroke="#EEEEEE" stroke-width="3" stroke-miterlimit="10"/>
<path d="M10.6772 30.3488C10.6772 30.3488 18.0831 33.3328 28.4514 33.3328C38.8198 33.3328 46.2257 30.3488 46.2257 30.3488" stroke="#EEEEEE" stroke-width="3" stroke-miterlimit="10"/>
<path d="M10.6772 36.317C10.6772 36.317 18.0831 39.3011 28.4514 39.3011C38.8198 39.3011 46.2257 36.317 46.2257 36.317" stroke="#EEEEEE" stroke-width="3" stroke-miterlimit="10"/>
<path d="M12.1583 40.7931C12.1583 40.7931 18.0831 45.2692 28.4514 45.2692C38.8198 45.2692 44.7445 40.7931 44.7445 40.7931" stroke="#EEEEEE" stroke-width="3" stroke-miterlimit="10"/>
<path d="M19.5643 31.8408V43.7772" stroke="#EEEEEE" stroke-width="3" stroke-miterlimit="10"/>
<path d="M37.3386 31.8408V43.7772" stroke="#EEEEEE" stroke-width="3" stroke-miterlimit="10"/>
<path d="M18.0831 52.7294L28.4514 58.6975L38.8198 53.4257" stroke="#EEEEEE" stroke-width="3" stroke-miterlimit="10"/>
<path d="M1 82.5703H15.1207" stroke="#EEEEEE" stroke-width="3" stroke-miterlimit="10"/>
<path d="M35.8574 90.8263H62.5188" stroke="#EEEEEE" stroke-width="3" stroke-miterlimit="10"/>
<path d="M23.3167 140.064L24.0079 146.728V149.712H7.71478L9.19597 143.744L17.3919 142.252L18.0831 139.765H23.3167L28.4514 114.699H29.9326L30.6238 126.635H32.2038L35.1662 139.268" stroke="#EEEEEE" stroke-width="3" stroke-miterlimit="10"/>
<path d="M39.5109 140.064V126.635H42.4733V110.223" stroke="#EEEEEE" stroke-width="3" stroke-miterlimit="10"/>
<path d="M30.6238 149.712V148.22L35.3637 139.964L39.511 140.064L41.7822 143.744L43.2633 145.236L43.1646 149.712H30.6238Z" stroke="#EEEEEE" stroke-width="3" stroke-miterlimit="10"/>
<path d="M9.19597 150.508V152" stroke="#EEEEEE" stroke-width="3" stroke-miterlimit="10"/>
<path d="M13.6395 150.508V152" stroke="#EEEEEE" stroke-width="3" stroke-miterlimit="10"/>
<path d="M18.0831 150.508V152" stroke="#EEEEEE" stroke-width="3" stroke-miterlimit="10"/>
<path d="M22.5267 150.508V152" stroke="#EEEEEE" stroke-width="3" stroke-miterlimit="10"/>
<path d="M32.2038 150.508V152" stroke="#EEEEEE" stroke-width="3" stroke-miterlimit="10"/>
<path d="M36.5486 150.508V152" stroke="#EEEEEE" stroke-width="3" stroke-miterlimit="10"/>
<path d="M41.091 150.508V152" stroke="#EEEEEE" stroke-width="3" stroke-miterlimit="10"/>
<path d="M44.0533 95.3024V101.967L51.953 104.951L55.804 101.569L55.9029 98.2865H53.5329L52.1505 95.3024H44.0533Z" stroke="#EEEEEE" stroke-width="3" stroke-miterlimit="10"/>
</svg>
