<?xml version="1.0" encoding="UTF-8"?>
<svg xmlns="http://www.w3.org/2000/svg" xmlns:xlink="http://www.w3.org/1999/xlink" width="18pt" height="18pt" viewBox="0 0 18 18" version="1.1">
<g id="surface1">
<path style=" stroke:none;fill-rule:nonzero;fill:rgb(0%,0%,0%);fill-opacity:1;" d="M 17.890625 16.828125 L 12.660156 11.601562 C 13.652344 10.375 14.25 8.820312 14.25 7.125 C 14.25 3.195312 11.054688 0 7.125 0 C 3.195312 0 0 3.195312 0 7.125 C 0 11.054688 3.195312 14.25 7.125 14.25 C 8.820312 14.25 10.375 13.652344 11.601562 12.660156 L 16.828125 17.890625 C 16.976562 18.035156 17.214844 18.035156 17.359375 17.890625 L 17.890625 17.359375 C 18.035156 17.214844 18.035156 16.976562 17.890625 16.828125 Z M 7.125 12.75 C 4.023438 12.75 1.5 10.226562 1.5 7.125 C 1.5 4.023438 4.023438 1.5 7.125 1.5 C 10.226562 1.5 12.75 4.023438 12.75 7.125 C 12.75 10.226562 10.226562 12.75 7.125 12.75 Z M 7.125 12.75 "/>
</g>
</svg>
