<svg width="43" height="36" viewBox="0 0 43 36" fill="none" xmlns="http://www.w3.org/2000/svg">
<path d="M1.59375 10.7945L4.67569 8.25521M25.3687 10.7945L14.753 2.04787C14.0144 1.43928 12.9481 1.43928 12.2094 2.04787L4.67569 8.25521M4.67569 8.25521V18.5891C4.67569 19.6936 5.57112 20.5891 6.67569 20.5891H8.25705L8.28264 20.5894C9.39677 20.6031 10.3073 19.7037 10.3073 18.5895V14.0976C10.3073 12.993 11.2027 12.0976 12.3073 12.0976H14.7143C15.8189 12.0976 16.7143 12.993 16.7143 14.0976V14.9365M22.1267 8.1233C22.1267 8.59819 22.1267 11.7883 22.1267 15.9436" stroke="#FF000D" stroke-width="1.5" stroke-linecap="round" stroke-linejoin="round"/>
<path d="M42 15.7373C42 16.1561 42 29.5101 42 33.2944C42 33.8467 41.5685 34.285 41.0162 34.285C36.307 34.285 15.7855 34.285 3.40882 34.285C2.51792 34.285 2.07714 33.2078 2.70711 32.5779L18.1084 17.1766C18.4989 16.7861 19.1321 16.7861 19.5226 17.1766L25.3689 23.0229C25.7824 23.4364 26.461 23.4084 26.839 22.9622L41.0238 6.21948" stroke="#0D0D0D" stroke-width="1.5" stroke-linecap="round"/>
<path d="M8.80859 30.136V34.0407" stroke="#0D0D0D" stroke-width="1.5" stroke-linecap="round"/>
<path d="M14.1777 24.5228V34.2847M19.7908 20.7471V34.2847M25.1599 25.9871V34.2847M31.017 23.0586V34.2847M36.3861 17.2014V34.2847" stroke="#0D0D0D" stroke-width="1.5" stroke-linecap="round"/>
<path d="M37.3594 6.04907H41.2641V9.95383" stroke="#0D0D0D" stroke-width="1.5" stroke-linecap="round"/>
</svg>
